<svg width="273" height="82" viewBox="0 0 273 82" fill="none" xmlns="http://www.w3.org/2000/svg">
<g clip-path="url(#clip0_24_4328)">
<path style="mix-blend-mode:screen" d="M175.837 50.5776C181.139 28.5608 167.589 6.41449 145.572 1.11246C123.555 -4.18957 101.409 9.36042 96.1069 31.3772C90.8048 53.394 104.355 75.5403 126.372 80.8424C148.388 86.1444 170.535 72.5944 175.837 50.5776Z" fill="url(#paint0_radial_24_4328)"/>
<path d="M166.461 7.53562C166.461 22.4322 157.709 30.2443 152.016 43.2339C150.483 46.8023 149.278 50.5025 148.414 54.2888C147.388 58.9559 146.903 63.7255 146.967 68.5036H124.001C124.001 41.7875 137.165 37.7709 151.104 22.8191L150.772 22.4874C149.682 23.4989 148.458 24.3546 147.133 25.0301C138.52 29.3415 127.474 15.8176 127.474 31.8012H114.687V7.53562H127.502V11.3864C133.13 1.70414 147.529 10.1059 152.909 10.1059C154.605 10.1059 156.751 9.18465 157.341 7.53562H166.461Z" fill="#D98200"/>
<path d="M161.91 7.53562C161.91 22.4322 153.167 30.2443 147.465 43.2339C145.936 46.8027 144.733 50.5028 143.872 54.2888C142.843 58.9555 142.354 63.7252 142.416 68.5036H119.45C119.45 41.7875 132.624 37.7709 146.562 22.8191L146.23 22.4874C145.126 23.5019 143.886 24.3577 142.545 25.0301C133.932 29.3415 122.895 15.8176 122.895 31.8012H110.136V7.53562H122.895V11.3864C128.524 1.70414 142.923 10.1059 148.303 10.1059C149.989 10.1059 152.136 9.18465 152.725 7.53562H161.91Z" fill="#FDF5A7"/>
<path d="M121.32 66.6519C121.753 48.3007 128.837 41.8796 138.529 33.1001C141.55 30.3364 144.674 27.5727 147.907 24.0627L148.303 23.6389C148.526 23.4073 148.65 23.0987 148.65 22.7776C148.65 22.4565 148.526 22.1478 148.303 21.9162L147.152 20.7739C146.926 20.5479 146.623 20.4171 146.304 20.4085C145.985 20.3999 145.675 20.5142 145.438 20.7278L145.014 21.1147C144.049 22.0124 142.964 22.772 141.79 23.3718C140.796 23.8585 139.7 24.0986 138.593 24.0719C136.564 23.9614 134.559 23.5772 132.633 22.9296C130.916 22.3428 129.128 21.9866 127.317 21.8702C122.214 21.8702 121.292 26.6883 121.126 29.9218H111.979V9.37808H121.053V15.707C121.049 15.8578 121.096 16.0056 121.186 16.1266C121.276 16.2476 121.404 16.3347 121.55 16.3741C121.695 16.4134 121.85 16.4026 121.989 16.3435C122.128 16.2843 122.242 16.1802 122.315 16.0479L124.48 12.3169C125.972 9.7558 128.266 8.56738 131.712 8.56738C134.964 8.56738 138.584 9.61761 141.772 10.5481C143.881 11.2897 146.075 11.7602 148.303 11.9483C149.356 11.9494 150.397 11.7198 151.352 11.2758C152.307 10.8318 153.153 10.184 153.831 9.37808H160.021C159.57 17.9917 156.005 24.0535 151.915 30.9905C149.636 34.6968 147.587 38.5394 145.779 42.4968C144.21 46.164 142.977 49.9659 142.094 53.8558C141.155 58.0579 140.658 62.3465 140.611 66.6519H121.32Z" fill="url(#paint1_linear_24_4328)"/>
<g style="mix-blend-mode:color-dodge" opacity="0.7">
<path d="M124.517 12.3169L122.352 16.0479C122.279 16.1802 122.164 16.2843 122.026 16.3435C121.887 16.4026 121.732 16.4134 121.587 16.3741C121.441 16.3347 121.313 16.2476 121.223 16.1266C121.132 16.0056 121.086 15.8578 121.09 15.707V9.37808H111.979V26.3013C119.407 19.6816 127.553 13.9126 136.263 9.10171C134.78 8.76931 133.267 8.59026 131.748 8.56738C128.303 8.56738 126.009 9.7558 124.517 12.3169Z" fill="#FFFB8B"/>
</g>
<g style="mix-blend-mode:multiply" opacity="0.53">
<path d="M142.076 53.8558C142.958 49.9659 144.192 46.164 145.761 42.4968C147.229 39.2384 148.884 36.0671 150.717 32.9988C142.057 35.3295 133.075 41.419 125.76 47.4623C123.126 52.2528 121.504 58.1856 121.302 66.6519H140.574C140.628 62.3458 141.131 58.0572 142.076 53.8558Z" fill="#FEDD93"/>
</g>
</g>
<g clip-path="url(#clip1_24_4328)">
<path d="M39.1559 69.9979L45.0918 58.0394L45.2393 55.7657C42.3804 57.1031 39.2741 57.8302 36.1185 57.9005C35.4416 57.9005 29.8789 57.9613 29.176 57.8485C25.3923 57.3104 25.7655 55.0454 22.6587 48.693C13.1561 29.2452 43.8595 6.16995 45.3521 5.198H51.1058L52.4856 6.06581C53.9522 7.03777 89.0554 29.2626 79.5094 48.7277C75.8038 56.3384 70.1283 57.9005 66.0235 57.9005C62.8686 57.8168 59.7656 57.078 56.9115 55.731L57.059 57.996L63.0209 69.9979H39.1559Z" fill="#D98200"/>
<g style="mix-blend-mode:multiply" opacity="0.59">
<path d="M29.176 57.9007C29.9223 58.0135 35.485 57.9528 36.1185 57.9528C39.2707 57.8692 42.3709 57.1303 45.2219 55.7833L45.0744 58.0569L39.1385 70.0154H63.0209L57.085 58.0483L56.9375 55.7833C59.7916 57.1303 62.8946 57.8691 66.0495 57.9528C70.1543 57.9528 75.8298 56.356 79.5441 48.7453C82.9459 41.8027 80.6288 34.4523 76.1856 27.8743C67.5075 34.0878 55.8874 40.501 44.1719 41.1519C35.8322 41.6118 30.0959 48.0944 26.1733 56.304C26.527 56.773 26.9791 57.159 27.4978 57.4349C28.0165 57.7107 28.5893 57.8697 29.176 57.9007Z" fill="#D98200"/>
</g>
<path d="M33.411 69.9979L39.3468 58.0394L39.4857 55.7657C36.6351 57.1008 33.5379 57.8279 30.391 57.9005C26.2775 57.9005 20.602 56.3037 16.8877 48.693C7.38513 29.2452 42.4449 7.03777 43.9463 6.06581L45.3261 5.198L46.7059 6.06581C48.2072 7.00306 83.2757 29.2452 73.7731 48.693C70.0502 56.3385 64.3747 57.9005 60.2699 57.9005C57.1178 57.8169 54.0175 57.0781 51.1665 55.731L51.314 57.996L57.2499 69.9632L33.411 69.9979Z" fill="url(#paint2_linear_24_4328)"/>
<path d="M45.3261 8.30493C45.3261 8.30493 10.6134 30.0003 19.2221 47.5823C25.2448 59.9053 36.9343 54.655 42.3841 51.2705L41.9069 58.7251L37.5678 67.4033H53.0149L48.6758 58.7251L48.1985 51.2705C53.6571 54.655 65.3379 59.9053 71.3606 47.5823C80.0127 30.0177 45.3261 8.30493 45.3261 8.30493Z" fill="url(#paint3_linear_24_4328)"/>
<g style="mix-blend-mode:multiply" opacity="0.37">
<path d="M69.5729 31.354C56.7292 38.6437 39.1993 46.8272 20.6974 50.0902C26.9891 59.1068 37.3508 54.4292 42.3928 51.2704L41.9155 58.725L37.5765 67.4031H53.0236L48.6845 58.725L48.2072 51.2704C53.6658 54.6549 65.3466 59.9052 71.3692 47.5822C74.0074 42.2798 72.6796 36.6737 69.5729 31.354Z" fill="#7CBF81"/>
</g>
<g style="mix-blend-mode:color-dodge" opacity="0.7">
<path d="M45.3261 8.30493C45.3261 8.30493 25.0191 21.0185 19.2916 34.8601C30.9029 25.3836 43.7727 19.0919 54.5163 15.0305C51.5795 12.6206 48.5113 10.3753 45.3261 8.30493Z" fill="#5CFF40"/>
</g>
<g style="mix-blend-mode:color-dodge" opacity="0.67">
<path d="M21.8863 42.9568C21.6772 43.5208 21.4338 44.0714 21.1574 44.6056C20.8189 45.2218 19.9685 45.0829 19.7689 42.6791C19.4131 37.1685 25.1059 34.2352 21.8863 42.9568Z" fill="#CDF9DB"/>
</g>
<g style="mix-blend-mode:color-dodge" opacity="0.67">
<path d="M24.1948 35.1811C24.135 35.256 24.0608 35.3183 23.9766 35.3642C23.8925 35.4101 23.8 35.4387 23.7046 35.4484C23.6092 35.4581 23.5129 35.4487 23.4212 35.4206C23.3295 35.3926 23.2444 35.3466 23.1707 35.2852C21.4351 33.8186 31.172 17.5904 40.6138 14.258C40.7598 14.2027 40.9199 14.197 41.0695 14.2417C41.2191 14.2864 41.3498 14.379 41.4416 14.5052C41.5333 14.6315 41.581 14.7845 41.5773 14.9405C41.5735 15.0966 41.5186 15.2471 41.4209 15.3688C36.7607 21.4522 34.6086 22.806 24.1948 35.1811Z" fill="#CDF9DB"/>
</g>
</g>
<g clip-path="url(#clip2_24_4328)">
<path d="M223.482 73.8685L229.106 62.5348L229.331 59.0635C227.305 60.0813 225.083 60.6518 222.817 60.7362C220.551 60.8206 218.293 60.4171 216.196 59.5529C214.099 58.6887 212.212 57.384 210.664 55.7273C209.115 54.0705 207.941 52.1003 207.22 49.95C206.499 47.7998 206.248 45.5197 206.485 43.2643C206.722 41.0088 207.441 38.8306 208.593 36.8772C209.745 34.9237 211.303 33.2406 213.163 31.9419C215.022 30.6431 217.138 29.759 219.369 29.3495C218.8 27.0199 218.769 24.5915 219.276 22.2478C219.783 19.9041 220.817 17.7063 222.298 15.8204C223.779 13.9345 225.669 12.4097 227.825 11.3612C229.982 10.3126 232.349 9.76782 234.747 9.76782C237.145 9.76782 239.511 10.3126 241.668 11.3612C243.824 12.4097 245.715 13.9345 247.196 15.8204C248.677 17.7063 249.71 19.9041 250.217 22.2478C250.725 24.5915 250.693 27.0199 250.124 29.3495C252.355 29.759 254.471 30.6431 256.331 31.9419C258.19 33.2406 259.748 34.9237 260.9 36.8772C262.052 38.8306 262.771 41.0088 263.008 43.2643C263.245 45.5197 262.995 47.7998 262.274 49.95C261.553 52.1003 260.378 54.0705 258.83 55.7273C257.281 57.384 255.394 58.6887 253.298 59.5529C251.201 60.4171 248.943 60.8206 246.676 60.7362C244.41 60.6518 242.188 60.0813 240.162 59.0635L240.387 62.5348L246.011 73.8685H223.482Z" fill="#D98200"/>
<g style="mix-blend-mode:multiply" opacity="0.59">
<path d="M223.482 73.8685H246.046L240.422 62.5348L240.197 59.0635C242.838 60.4001 245.803 60.9667 248.752 60.6987C251.7 60.4307 254.514 59.3388 256.872 57.5477C259.229 55.7566 261.036 53.3386 262.085 50.5698C263.133 47.801 263.382 44.793 262.803 41.8894C253.075 45.6384 242.045 48.4154 232.03 47.4348C228.043 46.9598 223.999 47.3982 220.206 48.7168C216.412 50.0353 212.969 52.1995 210.135 55.0455C212.414 57.7912 215.556 59.6833 219.049 60.4131C222.542 61.1428 226.179 60.6671 229.366 59.0635L229.141 62.5348L223.482 73.8685Z" fill="#D98200"/>
</g>
<path d="M218.996 73.8686L224.619 62.5349L224.845 59.0636C222.82 60.0718 220.602 60.6339 218.341 60.712C216.08 60.7901 213.828 60.3824 211.739 59.5163C209.649 58.6503 207.769 57.3462 206.226 55.6918C204.683 54.0374 203.512 52.0714 202.794 49.9263C202.075 47.7811 201.825 45.5069 202.06 43.2568C202.295 41.0068 203.01 38.8333 204.157 36.8831C205.303 34.9329 206.855 33.2513 208.706 31.9517C210.558 30.6521 212.667 29.7648 214.891 29.3496C214.588 28.1259 214.437 26.8698 214.44 25.6092C214.39 23.4999 214.763 21.4021 215.536 19.4389C216.309 17.4757 217.467 15.687 218.941 14.1777C220.416 12.6684 222.177 11.4691 224.121 10.6503C226.066 9.83148 228.154 9.40967 230.264 9.40967C232.374 9.40967 234.463 9.83148 236.407 10.6503C238.352 11.4691 240.113 12.6684 241.587 14.1777C243.062 15.687 244.219 17.4757 244.993 19.4389C245.766 21.4021 246.138 23.4999 246.089 25.6092C246.092 26.8698 245.94 28.1259 245.638 29.3496C247.87 29.7573 249.988 30.64 251.848 31.9379C253.709 33.2358 255.269 34.9185 256.423 36.872C257.576 38.8255 258.297 41.0042 258.534 43.2603C258.772 45.5165 258.523 47.7975 257.802 49.9487C257.081 52.0999 255.907 54.071 254.358 55.7286C252.809 57.3861 250.921 58.6913 248.824 59.5557C246.726 60.4202 244.467 60.8236 242.2 60.7387C239.933 60.6538 237.711 60.0825 235.684 59.0636L235.901 62.5349L241.524 73.8686H218.996Z" fill="url(#paint4_linear_24_4328)"/>
<path d="M242.757 31.4929H242.297C243.306 29.4474 243.776 27.1785 243.665 24.9005C243.553 22.6224 242.862 20.4105 241.658 18.4736C240.454 16.5367 238.775 14.9387 236.782 13.8308C234.788 12.7228 232.545 12.1414 230.264 12.1414C227.984 12.1414 225.74 12.7228 223.747 13.8308C221.753 14.9387 220.075 16.5367 218.871 18.4736C217.666 20.4105 216.976 22.6224 216.864 24.9005C216.752 27.1785 217.223 29.4474 218.232 31.4929H217.763C215.537 31.4929 213.346 32.0469 211.387 33.105C209.428 34.1631 207.763 35.6921 206.543 37.554C205.322 39.416 204.584 41.5524 204.395 43.7707C204.206 45.9891 204.572 48.2195 205.46 50.2611C206.349 52.3027 207.731 54.0911 209.482 55.4653C211.234 56.8394 213.3 57.7561 215.494 58.1326C217.689 58.5091 219.942 58.3336 222.052 57.6219C224.161 56.9103 226.061 55.6849 227.578 54.0561L226.988 63.1856L222.875 71.4819H237.628L233.514 63.1856L232.924 54.0561C234.442 55.6849 236.341 56.9103 238.451 57.6219C240.56 58.3336 242.814 58.5091 245.008 58.1326C247.203 57.7561 249.269 56.8394 251.02 55.4653C252.772 54.0911 254.154 52.3027 255.042 50.2611C255.93 48.2195 256.296 45.9891 256.107 43.7707C255.918 41.5524 255.18 39.416 253.96 37.554C252.739 35.6921 251.075 34.1631 249.116 33.105C247.157 32.0469 244.966 31.4929 242.739 31.4929H242.757Z" fill="url(#paint5_linear_24_4328)"/>
<g style="mix-blend-mode:multiply" opacity="0.54">
<path d="M217.763 58.2998C219.607 58.3023 221.431 57.9226 223.12 57.1847C224.809 56.4468 226.328 55.3668 227.578 54.0128L226.988 63.1422L222.875 71.4386H237.628L233.514 63.1422L232.924 54.0128C234.28 55.4755 235.944 56.6177 237.796 57.3563C239.648 58.095 241.642 58.4114 243.632 58.2826C245.622 58.1539 247.558 57.5831 249.3 56.612C251.041 55.6408 252.545 54.2936 253.7 52.6684C254.856 51.0432 255.634 49.1809 255.979 47.2169C256.325 45.2529 256.228 43.2367 255.696 41.3149C255.164 39.3931 254.21 37.614 252.904 36.1071C251.598 34.6002 249.972 33.4034 248.146 32.6038C240.24 41.7939 223.691 51.2618 206.898 52.7544C208.14 54.4736 209.773 55.873 211.662 56.8372C213.551 57.8013 215.643 58.3026 217.763 58.2998Z" fill="#82A5E0"/>
</g>
<g style="mix-blend-mode:color-dodge" opacity="0.15">
<path d="M231.067 15.2734C223.656 15.2734 218.918 20.7841 218.918 28.2039C218.917 30.2547 219.392 32.2778 220.306 34.1137H219.838C216.294 34.1137 212.895 35.5152 210.381 38.0126C207.868 40.5099 206.444 43.9002 206.421 47.4434C215.629 36.5089 226.841 31.5884 240.995 23.5784C240.361 20.4369 235.771 15.2734 231.067 15.2734Z" fill="#8BAAE7"/>
</g>
<g style="mix-blend-mode:screen" opacity="0.67">
<path d="M212.175 55.1064C212.322 56.6078 209.215 55.1064 208.773 52.9022C208.122 49.4222 211.793 51.3575 212.175 55.1064Z" fill="#FCCDEC"/>
</g>
<g style="mix-blend-mode:screen" opacity="0.67">
<path d="M209.12 48.2332C209.092 48.3827 209.019 48.5203 208.912 48.6285C208.805 48.7366 208.669 48.8103 208.519 48.8402C208.37 48.87 208.215 48.8546 208.075 48.796C207.935 48.7373 207.815 48.638 207.732 48.5109C206.773 46.8863 206.317 45.014 206.421 43.1304C206.82 32.7166 219.195 31.25 218.571 33.8014C218.542 33.9242 218.481 34.0372 218.394 34.1287C218.307 34.2202 218.197 34.2869 218.076 34.3221C210.448 36.6044 210.066 43.8507 209.12 48.2332Z" fill="#FCCDEC"/>
</g>
<g style="mix-blend-mode:screen" opacity="0.67">
<path d="M221.313 30.5298C221.285 30.6791 221.214 30.8167 221.107 30.9247C221 31.0326 220.864 31.1059 220.715 31.1349C220.566 31.164 220.411 31.1474 220.272 31.0875C220.133 31.0275 220.014 30.927 219.933 30.7989C215.429 23.7088 222.641 13.4425 230.26 15.2389C230.415 15.2726 230.554 15.3572 230.656 15.4791C230.757 15.601 230.815 15.7533 230.82 15.9119C230.825 16.0704 230.777 16.2261 230.683 16.3542C230.59 16.4822 230.456 16.5754 230.303 16.6187C222.667 18.8751 222.285 26.0693 221.313 30.5298Z" fill="#FCCDEC"/>
</g>
</g>
<defs>
<radialGradient id="paint0_radial_24_4328" cx="0" cy="0" r="1" gradientUnits="userSpaceOnUse" gradientTransform="translate(135.962 41.0103) scale(40.2584 40.2584)">
<stop stop-color="#FCC710" stop-opacity="0.7"/>
<stop offset="0.465" stop-color="#FCC710" stop-opacity="0.3"/>
<stop offset="1" stop-color="#FCC710" stop-opacity="0"/>
</radialGradient>
<linearGradient id="paint1_linear_24_4328" x1="121.338" y1="2.8096" x2="153.241" y2="60.9217" gradientUnits="userSpaceOnUse">
<stop stop-color="#F9C615"/>
<stop offset="0.08" stop-color="#FAD02A"/>
<stop offset="0.27" stop-color="#FCE458"/>
<stop offset="0.43" stop-color="#FEF379"/>
<stop offset="0.57" stop-color="#FFFC8E"/>
<stop offset="0.66" stop-color="#FFFF95"/>
<stop offset="0.8" stop-color="#FBE156"/>
<stop offset="0.93" stop-color="#F7C51D"/>
<stop offset="1" stop-color="#F5BA06"/>
</linearGradient>
<linearGradient id="paint2_linear_24_4328" x1="38.1579" y1="15.5858" x2="53.0844" y2="69.6941" gradientUnits="userSpaceOnUse">
<stop stop-color="#FDEE72"/>
<stop offset="0.23" stop-color="#FBE156"/>
<stop offset="0.75" stop-color="#F7C51D"/>
<stop offset="1" stop-color="#F5BA06"/>
</linearGradient>
<linearGradient id="paint3_linear_24_4328" x1="38.7393" y1="17.6513" x2="52.1645" y2="66.3358" gradientUnits="userSpaceOnUse">
<stop offset="0.01" stop-color="#7DF257"/>
<stop offset="1" stop-color="#128728"/>
</linearGradient>
<linearGradient id="paint4_linear_24_4328" x1="201.943" y1="41.8201" x2="258.586" y2="41.8201" gradientUnits="userSpaceOnUse">
<stop stop-color="#FDEE72"/>
<stop offset="0.23" stop-color="#FBE156"/>
<stop offset="0.75" stop-color="#F7C51D"/>
<stop offset="1" stop-color="#F5BA06"/>
</linearGradient>
<linearGradient id="paint5_linear_24_4328" x1="215.073" y1="20.7233" x2="246.315" y2="70.4839" gradientUnits="userSpaceOnUse">
<stop stop-color="#569FFE"/>
<stop offset="0.53" stop-color="#3D6ADA"/>
<stop offset="1" stop-color="#2539B9"/>
</linearGradient>
<clipPath id="clip0_24_4328">
<rect width="82" height="82" fill="white" transform="translate(95)"/>
</clipPath>
<clipPath id="clip1_24_4328">
<rect width="82" height="82" fill="white"/>
</clipPath>
<clipPath id="clip2_24_4328">
<rect width="82" height="82" fill="white" transform="translate(191)"/>
</clipPath>
</defs>
</svg>
